<svg width="56" height="18" viewBox="0 0 56 18" fill="none" xmlns="http://www.w3.org/2000/svg">
<path d="M10.1411 10.1963C9.3717 10.0892 8.65039 9.76752 8.06386 9.2699C7.04421 8.54305 6.29446 7.51219 5.92776 6.33292C5.71945 5.11966 5.86668 3.87364 6.35247 2.73851C6.73554 1.78491 7.20859 0.868131 7.76554 0C6.10295 1.25337 4.62383 2.72283 3.36931 4.36752C2.09856 5.97882 1.06779 7.75753 0.307658 9.65072C-0.19848 11.3333 -0.0772066 13.1365 0.649936 14.7401C0.849759 15.1187 1.09483 15.4728 1.38002 15.7951C1.73083 16.1752 2.12998 16.51 2.56779 16.7913C3.42025 17.3624 4.39479 17.7366 5.41749 17.8854C7.4005 18.1674 8.07092 17.8931 10.1411 17.4518C12.3226 16.8984 14.4701 16.2241 16.5729 15.432L56 0.603788L18.1155 9.50053C16.6066 9.84226 15.0795 10.1019 13.5411 10.2783C13.1274 10.3158 12.2976 10.3549 11.9953 10.3442C11.3748 10.3314 10.7555 10.2821 10.1411 10.1963Z" fill="#1A1A1A"/>
</svg>
