<svg id="Grupo_26" data-name="Grupo 26" xmlns="http://www.w3.org/2000/svg" width="74.512" height="37.481" viewBox="0 0 74.512 37.481">
  <g id="Grupo_25" data-name="Grupo 25" transform="translate(0 0)">
    <g id="Grupo_23" data-name="Grupo 23" transform="translate(36.572)">
      <path id="Trazado_176" data-name="Trazado 176" d="M594.09,242.941c-.25.034-.483.935-.951,1.4-.346.342-.775.322-1.007.739-.084.152-.052.423-.149.671-.2.518-.868.564-.874,1.118,0,.606.565.719,1.054,1.144.391.342.424.583.885.742.4.142.99-.3,1.518-.139.435.128.857.219.95.664.089.415,0,1.053-.533.985a5.481,5.481,0,0,0-1.9-.178c-1.145.127-2.452.5-2.581,1.776a1.47,1.47,0,0,0,1.666,1.384c.586-.116.312-.81.634-1.147.416-.433,2.8,1.509,5.015,1.509a2.924,2.924,0,0,0,2.319-.96c.058-.051.145-.169.24-.183a.9.9,0,0,1,.312.14c1.788,1.435,3.134,4.314,9.693,4.352a4.388,4.388,0,0,1,2.833,1.228,7.73,7.73,0,0,1,1.646,2.921,15.557,15.557,0,0,0,3.617,5.119c.093.1,1.57,1.244,1.679,1.322a.679.679,0,0,1,.092.414c-.044,1.095-.2,4.257,2.155,4.39.579.035.431-.37.431-.652a3.2,3.2,0,0,1,.187-1.658c.391-.773-.841-1.133-.8-2.814.022-1.245-1.025-1.035-1.564-1.99a2.567,2.567,0,0,1-.558-1.514c.12-3.8-.807-6.3-1.272-6.906-.359-.462-.657-.644-.326-.862a6.045,6.045,0,0,0,2.412-2.51c1.045-2.46,1.985-4.7,3.289-5.7a9.688,9.688,0,0,1,1.335-.9,9.266,9.266,0,0,0,2.2-1.26c.556-.543,1-1.68.458-2.357-.656-.848-1.808-.177-2.315.122-3.615,2.149-4.149,5.937-5.4,8.11a5.842,5.842,0,0,1-4.079,3.124,7.4,7.4,0,0,1-3.429-.655,17.255,17.255,0,0,1-4.767-3.146c-.767-.589-6.694-6.408-11.507-6.65,0,0-.591-1.192-.741-1.216-.351-.042-.713.715-.97.8C594.742,243.8,594.333,242.9,594.09,242.941Z" transform="translate(-590.5 -242.815)"/>
    </g>
    <path id="Trazado_177" data-name="Trazado 177" d="M568.25,281.509a.853.853,0,0,1-.836-.834v-15h-4.939V282.2a1.462,1.462,0,0,0,1.457,1.464h8.64a1.459,1.459,0,0,0,1.46-1.464V265.677h-4.94v15A.861.861,0,0,1,568.25,281.509Z" transform="translate(-549.247 -246.633)"/>
    <path id="Trazado_178" data-name="Trazado 178" d="M587.448,265.677h-7.477a1.609,1.609,0,0,0-1.6,1.617v16.373h4.937V268.646a.84.84,0,0,1,.843-.823.825.825,0,0,1,.837.812v15.032h4.928V268.635a.823.823,0,0,1,.839-.812.84.84,0,0,1,.839.823v15.021h4.939V267.294a1.61,1.61,0,0,0-1.6-1.617Z" transform="translate(-551.902 -246.633)"/>
    <path id="Trazado_179" data-name="Trazado 179" d="M556.532,279.154h-5v4.516h-4.94V265.677h9.962a1.6,1.6,0,0,1,1.592,1.62v10.231A1.626,1.626,0,0,1,556.532,279.154Zm-3.319-10.48a.843.843,0,0,0-.839-.848h-.84v9.1h.84a.84.84,0,0,0,.839-.852Z" transform="translate(-546.595 -246.633)"/>
    <g id="Grupo_24" data-name="Grupo 24" transform="translate(59.399 33.05)">
      <path id="Trazado_180" data-name="Trazado 180" d="M622.305,284.707a2.2,2.2,0,1,1-2.226-2.215A2.207,2.207,0,0,1,622.305,284.707Zm-2.221-1.887a1.852,1.852,0,1,0,.028,0Z" transform="translate(-617.904 -282.492)"/>
      <path id="Trazado_181" data-name="Trazado 181" d="M621.437,286.178h-.591l-.759-1.007v1.007H619.6v-2.55h.517c.687,0,1.046.263,1.046.756a.738.738,0,0,1-.515.711l-.036.016Zm-1.27-1.424c.346,0,.527-.122.527-.364,0-.214-.174-.331-.514-.331h-.094v.695Z" transform="translate(-618.187 -282.682)"/>
    </g>
    <path id="Trazado_182" data-name="Trazado 182" d="M608.8,283.667v-4.511h-1.675v4.511h-4.938V267.294a1.616,1.616,0,0,1,1.609-1.617h8.341a1.61,1.61,0,0,1,1.6,1.617v16.373Zm0-6.739v-8.282a.826.826,0,0,0-.836-.815.841.841,0,0,0-.843.824v8.273Z" transform="translate(-555.88 -246.633)"/>
  </g>
</svg>
